{
    "asset" : {
        "copyright" : "Copyright 2020 Omabuarts Studio. For more info, visit https://omabuarts.com/license",
        "generator" : "Khronos glTF Blender I/O v1.1.46",
        "version" : "2.0"
    },
    "scene" : 0,
    "scenes" : [
        {
            "name" : "Scene",
            "nodes" : [
                14
            ]
        }
    ],
    "nodes" : [
        {
            "name" : "tail.01",
            "rotation" : [
                -0.781642735004425,
                -8.35302600421528e-08,
                1.1255126608489263e-08,
                0.6237264275550842
            ],
            "scale" : [
                1,
                0.9999999403953552,
                0.9999999403953552
            ],
            "translation" : [
                2.0964036195891822e-07,
                0.1546628773212433,
                -0.48646414279937744
            ]
        },
        {
            "name" : "tail.02",
            "rotation" : [
                -0.8861520886421204,
                -6.434272847855027e-08,
                -8.497698900100659e-08,
                0.4633944034576416
            ],
            "scale" : [
                1,
                0.9999998211860657,
                0.9999999403953552
            ],
            "translation" : [
                2.2610355188135145e-07,
                0.05082271248102188,
                -0.516616940498352
            ]
        },
        {
            "name" : "hair.01",
            "rotation" : [
                -0.10809038579463959,
                -0.04990032687783241,
                -0.06988945603370667,
                0.9904251098632812
            ],
            "scale" : [
                1,
                0.9999998807907104,
                0.9999998211860657
            ],
            "translation" : [
                2.559279721481289e-08,
                0.8503459095954895,
                0.28548726439476013
            ]
        },
        {
            "name" : "hair.02",
            "rotation" : [
                -0.2970483899116516,
                -0.0650150254368782,
                -0.05171055719256401,
                0.9512420892715454
            ],
            "scale" : [
                1,
                1,
                0.9999999403953552
            ],
            "translation" : [
                3.841640250357159e-08,
                0.8465480208396912,
                0.23170116543769836
            ]
        },
        {
            "name" : "wing.L",
            "rotation" : [
                -0.0068968115374445915,
                0.7360344529151917,
                -0.676876962184906,
                -0.006580103654414415
            ],
            "scale" : [
                1,
                0.9999998807907104,
                1
            ],
            "translation" : [
                0.5170627236366272,
                0.0513157844543457,
                0.18751218914985657
            ]
        },
        {
            "name" : "wing.R",
            "rotation" : [
                0.006897075567394495,
                0.7360344529151917,
                -0.676876962184906,
                0.006580276880413294
            ],
            "translation" : [
                -0.5170628428459167,
                0.0513157844543457,
                0.18751195073127747
            ]
        },
        {
            "children" : [
                0,
                1,
                2,
                3,
                4,
                5
            ],
            "name" : "body",
            "rotation" : [
                0.7071068286895752,
                8.429370268459024e-08,
                8.429370268459024e-08,
                0.7071068286895752
            ],
            "translation" : [
                0,
                0.04545918107032776,
                0.638204038143158
            ]
        },
        {
            "name" : "feet.L",
            "rotation" : [
                -5.338508657359853e-08,
                -0.7071068286895752,
                0.7071068286895752,
                5.338508657359853e-08
            ],
            "translation" : [
                0.2029442936182022,
                0,
                0.31300148367881775
            ]
        },
        {
            "name" : "feet.R",
            "rotation" : [
                -5.338508657359853e-08,
                -0.7071068286895752,
                0.7071068286895752,
                5.338508657359853e-08
            ],
            "translation" : [
                -0.2029442936182022,
                0,
                0.31300148367881775
            ]
        },
        {
            "children" : [
                6,
                7,
                8
            ],
            "name" : "root",
            "rotation" : [
                -0.7071068286895752,
                0,
                0,
                0.7071068286895752
            ]
        },
        {
            "mesh" : 0,
            "name" : "Chick_LOD0",
            "skin" : 0
        },
        {
            "mesh" : 1,
            "name" : "Chick_LOD1",
            "skin" : 0
        },
        {
            "mesh" : 2,
            "name" : "Chick_LOD2",
            "skin" : 0
        },
        {
            "mesh" : 3,
            "name" : "Chick_LOD3",
            "skin" : 0
        },
        {
            "children" : [
                10,
                11,
                12,
                13,
                9
            ],
            "name" : "Rig"
        }
    ],
    "materials" : [
        {
            "doubleSided" : true,
            "emissiveFactor" : [
                0,
                0,
                0
            ],
            "name" : "Mat_Chick",
            "pbrMetallicRoughness" : {
                "baseColorTexture" : {
                    "index" : 0,
                    "texCoord" : 0
                },
                "metallicFactor" : 0,
                "roughnessFactor" : 0.5
            }
        }
    ],
    "meshes" : [
        {
            "name" : "Chick",
            "primitives" : [
                {
                    "attributes" : {
                        "POSITION" : 0,
                        "NORMAL" : 1,
                        "TEXCOORD_0" : 2,
                        "JOINTS_0" : 3,
                        "WEIGHTS_0" : 4
                    },
                    "indices" : 5,
                    "material" : 0
                }
            ]
        },
        {
            "name" : "Chick.002",
            "primitives" : [
                {
                    "attributes" : {
                        "POSITION" : 7,
                        "NORMAL" : 8,
                        "TEXCOORD_0" : 9,
                        "JOINTS_0" : 10,
                        "WEIGHTS_0" : 11
                    },
                    "indices" : 12,
                    "material" : 0
                }
            ]
        },
        {
            "name" : "Chick.005",
            "primitives" : [
                {
                    "attributes" : {
                        "POSITION" : 13,
                        "NORMAL" : 14,
                        "TEXCOORD_0" : 15,
                        "JOINTS_0" : 16,
                        "WEIGHTS_0" : 17
                    },
                    "indices" : 18,
                    "material" : 0
                }
            ]
        },
        {
            "name" : "Chick.001",
            "primitives" : [
                {
                    "attributes" : {
                        "POSITION" : 19,
                        "NORMAL" : 20,
                        "TEXCOORD_0" : 21,
                        "JOINTS_0" : 22,
                        "WEIGHTS_0" : 23
                    },
                    "indices" : 24,
                    "material" : 0
                }
            ]
        }
    ],
    "textures" : [
        {
            "source" : 0
        }
    ],
    "images" : [
        {
            "bufferView" : 6,
            "mimeType" : "image/png",
            "name" : "Tex_Chick"
        }
    ],
    "skins" : [
        {
            "inverseBindMatrices" : 6,
            "joints" : [
                9,
                6,
                0,
                1,
                2,
                3,
                4,
                5,
                7,
                8
            ],
            "name" : "Rig"
        }
    ],
    "accessors" : [
        {
            "bufferView" : 0,
            "componentType" : 5126,
            "count" : 3620,
            "max" : [
                0.6056132912635803,
                1.6273598670959473,
                0.6720528602600098
            ],
            "min" : [
                -0.6056132912635803,
                -0.0010592835023999214,
                -0.8226525783538818
            ],
            "type" : "VEC3"
        },
        {
            "bufferView" : 1,
            "componentType" : 5126,
            "count" : 3620,
            "type" : "VEC3"
        },
        {
            "bufferView" : 2,
            "componentType" : 5126,
            "count" : 3620,
            "type" : "VEC2"
        },
        {
            "bufferView" : 3,
            "componentType" : 5123,
            "count" : 3620,
            "type" : "VEC4"
        },
        {
            "bufferView" : 4,
            "componentType" : 5126,
            "count" : 3620,
            "type" : "VEC4"
        },
        {
            "bufferView" : 5,
            "componentType" : 5123,
            "count" : 12300,
            "type" : "SCALAR"
        },
        {
            "bufferView" : 7,
            "componentType" : 5126,
            "count" : 10,
            "type" : "MAT4"
        },
        {
            "bufferView" : 8,
            "componentType" : 5126,
            "count" : 1623,
            "max" : [
                0.6023540496826172,
                1.6240770816802979,
                0.6720528602600098
            ],
            "min" : [
                -0.602354109287262,
                -0.0010592835023999214,
                -0.8203403353691101
            ],
            "type" : "VEC3"
        },
        {
            "bufferView" : 9,
            "componentType" : 5126,
            "count" : 1623,
            "type" : "VEC3"
        },
        {
            "bufferView" : 10,
            "componentType" : 5126,
            "count" : 1623,
            "type" : "VEC2"
        },
        {
            "bufferView" : 11,
            "componentType" : 5123,
            "count" : 1623,
            "type" : "VEC4"
        },
        {
            "bufferView" : 12,
            "componentType" : 5126,
            "count" : 1623,
            "type" : "VEC4"
        },
        {
            "bufferView" : 13,
            "componentType" : 5123,
            "count" : 4656,
            "type" : "SCALAR"
        },
        {
            "bufferView" : 14,
            "componentType" : 5126,
            "count" : 522,
            "max" : [
                0.6023540496826172,
                1.627819299697876,
                0.6720528602600098
            ],
            "min" : [
                -0.6023540496826172,
                0.00046883540926501155,
                -0.8246572017669678
            ],
            "type" : "VEC3"
        },
        {
            "bufferView" : 15,
            "componentType" : 5126,
            "count" : 522,
            "type" : "VEC3"
        },
        {
            "bufferView" : 16,
            "componentType" : 5126,
            "count" : 522,
            "type" : "VEC2"
        },
        {
            "bufferView" : 17,
            "componentType" : 5123,
            "count" : 522,
            "type" : "VEC4"
        },
        {
            "bufferView" : 18,
            "componentType" : 5126,
            "count" : 522,
            "type" : "VEC4"
        },
        {
            "bufferView" : 19,
            "componentType" : 5123,
            "count" : 2172,
            "type" : "SCALAR"
        },
        {
            "bufferView" : 20,
            "componentType" : 5126,
            "count" : 413,
            "max" : [
                0.5983980894088745,
                1.6370049715042114,
                0.6720528602600098
            ],
            "min" : [
                -0.5983980894088745,
                0.00046883540926501155,
                -0.8363127708435059
            ],
            "type" : "VEC3"
        },
        {
            "bufferView" : 21,
            "componentType" : 5126,
            "count" : 413,
            "type" : "VEC3"
        },
        {
            "bufferView" : 22,
            "componentType" : 5126,
            "count" : 413,
            "type" : "VEC2"
        },
        {
            "bufferView" : 23,
            "componentType" : 5123,
            "count" : 413,
            "type" : "VEC4"
        },
        {
            "bufferView" : 24,
            "componentType" : 5126,
            "count" : 413,
            "type" : "VEC4"
        },
        {
            "bufferView" : 25,
            "componentType" : 5123,
            "count" : 1596,
            "type" : "SCALAR"
        }
    ],
    "bufferViews" : [
        {
            "buffer" : 0,
            "byteLength" : 43440,
            "byteOffset" : 0
        },
        {
            "buffer" : 0,
            "byteLength" : 43440,
            "byteOffset" : 43440
        },
        {
            "buffer" : 0,
            "byteLength" : 28960,
            "byteOffset" : 86880
        },
        {
            "buffer" : 0,
            "byteLength" : 28960,
            "byteOffset" : 115840
        },
        {
            "buffer" : 0,
            "byteLength" : 57920,
            "byteOffset" : 144800
        },
        {
            "buffer" : 0,
            "byteLength" : 24600,
            "byteOffset" : 202720
        },
        {
            "buffer" : 0,
            "byteLength" : 131,
            "byteOffset" : 227320
        },
        {
            "buffer" : 0,
            "byteLength" : 640,
            "byteOffset" : 227452
        },
        {
            "buffer" : 0,
            "byteLength" : 19476,
            "byteOffset" : 228092
        },
        {
            "buffer" : 0,
            "byteLength" : 19476,
            "byteOffset" : 247568
        },
        {
            "buffer" : 0,
            "byteLength" : 12984,
            "byteOffset" : 267044
        },
        {
            "buffer" : 0,
            "byteLength" : 12984,
            "byteOffset" : 280028
        },
        {
            "buffer" : 0,
            "byteLength" : 25968,
            "byteOffset" : 293012
        },
        {
            "buffer" : 0,
            "byteLength" : 9312,
            "byteOffset" : 318980
        },
        {
            "buffer" : 0,
            "byteLength" : 6264,
            "byteOffset" : 328292
        },
        {
            "buffer" : 0,
            "byteLength" : 6264,
            "byteOffset" : 334556
        },
        {
            "buffer" : 0,
            "byteLength" : 4176,
            "byteOffset" : 340820
        },
        {
            "buffer" : 0,
            "byteLength" : 4176,
            "byteOffset" : 344996
        },
        {
            "buffer" : 0,
            "byteLength" : 8352,
            "byteOffset" : 349172
        },
        {
            "buffer" : 0,
            "byteLength" : 4344,
            "byteOffset" : 357524
        },
        {
            "buffer" : 0,
            "byteLength" : 4956,
            "byteOffset" : 361868
        },
        {
            "buffer" : 0,
            "byteLength" : 4956,
            "byteOffset" : 366824
        },
        {
            "buffer" : 0,
            "byteLength" : 3304,
            "byteOffset" : 371780
        },
        {
            "buffer" : 0,
            "byteLength" : 3304,
            "byteOffset" : 375084
        },
        {
            "buffer" : 0,
            "byteLength" : 6608,
            "byteOffset" : 378388
        },
        {
            "buffer" : 0,
            "byteLength" : 3192,
            "byteOffset" : 384996
        }
    ],
    "buffers" : [
        {
            "byteLength" : 388188,
            "uri" : "data:application/octet-stream;base64,"
        }
    ]
}
